<?xml version="1.0" standalone="no"?>
<!DOCTYPE svg PUBLIC "-//W3C//DTD SVG 20010904//EN"
 "http://www.w3.org/TR/2001/REC-SVG-20010904/DTD/svg10.dtd">
<svg version="1.0" xmlns="http://www.w3.org/2000/svg"
 width="636.000000pt" height="628.000000pt" viewBox="0 0 636.000000 628.000000"
 preserveAspectRatio="xMidYMid meet">
<metadata>
Created by potrace 1.16, written by Peter Selinger 2001-2019
</metadata>
<g transform="translate(0.000000,628.000000) scale(0.100000,-0.100000)"
fill="#000000" stroke="none">
<path d="M0 6269 c0 -7 11 -9 27 -6 15 3 33 3 40 0 17 -7 16 -43 -2 -67 -8
-11 -15 -28 -15 -37 0 -11 -9 -19 -22 -21 -23 -3 -23 -4 -24 -178 -1 -96 1
-179 4 -183 2 -5 10 2 16 15 9 17 19 22 41 20 79 -6 104 -11 117 -18 7 -5 29
-9 48 -9 27 0 37 -5 45 -22 17 -39 44 -23 36 21 -5 23 24 21 51 -5 23 -21 38
-27 58 -23 17 4 31 0 39 -10 8 -9 19 -16 27 -16 18 0 25 -15 18 -35 -4 -9 -13
-14 -21 -11 -19 8 -29 -22 -15 -45 7 -10 12 -25 12 -32 0 -8 9 -22 21 -33 20
-18 21 -18 35 0 10 14 13 53 13 142 0 92 4 131 16 153 8 17 15 43 15 60 0 16
5 33 10 36 11 7 13 -5 10 -43 -1 -19 2 -22 22 -17 13 3 48 -2 78 -11 30 -9 71
-17 90 -18 19 -1 45 -7 57 -14 12 -7 33 -12 46 -12 35 0 57 -30 56 -76 0 -21
-3 -33 -6 -26 -2 6 -10 12 -17 12 -7 0 -31 9 -54 20 -57 28 -117 31 -116 8 0
-10 1 -52 2 -93 2 -73 3 -75 33 -91 28 -14 72 -22 132 -23 17 -1 18 -10 12
-138 -3 -76 -12 -223 -20 -328 -16 -211 -25 -619 -14 -636 3 -6 8 27 11 73 3
59 11 95 26 125 20 38 21 53 17 154 -6 113 0 173 14 164 11 -6 39 53 46 98 6
38 7 38 26 21 22 -20 25 -34 5 -34 -9 0 -15 -21 -19 -73 -8 -90 -2 -116 24
-110 23 6 33 40 26 86 -7 48 29 261 43 252 4 -3 11 3 15 13 6 15 7 15 15 1 12
-21 14 -96 6 -309 -6 -166 -5 -181 8 -145 8 22 19 81 26 130 6 50 18 128 26
175 8 47 19 164 24 260 9 159 34 320 51 320 4 0 9 -24 13 -52 11 -96 18 -128
27 -122 5 3 9 16 9 29 0 13 3 25 8 27 21 9 53 71 48 93 -4 16 -1 25 10 29 27
11 12 80 -26 119 -27 28 -31 37 -26 68 4 26 1 40 -9 49 -8 7 -15 23 -15 36 0
20 5 24 29 24 30 0 61 -30 61 -58 0 -8 9 -25 20 -39 13 -17 20 -41 20 -69 0
-38 3 -44 25 -50 31 -8 36 -3 51 39 8 24 18 33 37 35 25 3 27 0 27 -32 0 -40
18 -57 35 -33 7 10 20 17 29 17 13 0 16 -11 16 -54 0 -30 3 -62 6 -70 6 -15
40 -34 88 -50 15 -5 17 -12 11 -43 -4 -20 -12 -45 -19 -54 -11 -17 -13 -16
-25 3 -13 21 -13 21 -37 -8 -27 -33 -31 -56 -9 -48 8 4 15 2 15 -3 0 -16 104
-10 117 7 19 23 15 79 -8 111 -15 22 -18 33 -10 43 6 7 8 16 4 20 -15 15 37
-1 55 -17 10 -9 24 -17 32 -17 7 0 18 -7 25 -17 15 -20 35 -9 35 20 0 12 7 41
15 64 27 79 29 115 6 142 -25 29 -26 37 -5 45 9 3 14 15 12 28 -2 17 -12 24
-38 29 -84 16 -202 69 -250 111 -53 48 -115 88 -134 88 -8 0 -19 -7 -26 -15
-21 -25 -43 -19 -36 10 9 34 -35 74 -134 123 -71 35 -81 37 -193 40 -99 3
-116 1 -111 -11 12 -32 -110 -38 -149 -7 -14 11 -40 20 -59 20 -27 -1 -30 -2
-15 -11 9 -5 17 -18 17 -27 0 -10 5 -23 10 -28 8 -8 7 -14 -3 -22 -10 -8 -20
-7 -41 3 -16 8 -34 15 -40 15 -25 0 -96 41 -96 55 0 13 -47 15 -345 15 -247 0
-345 -3 -345 -11z m255 -14 c105 -4 197 -16 217 -26 10 -5 18 -18 18 -27 0
-16 -10 -18 -92 -18 l-93 1 3 -25 c2 -24 -2 -26 -40 -29 -146 -10 -144 -10
-152 59 -9 75 -4 84 43 75 20 -4 63 -8 96 -10z"/>
<path d="M2247 6274 c-4 -4 -4 -29 -1 -56 8 -57 -13 -100 -45 -91 -29 7 -33
-20 -30 -210 1 -98 -3 -202 -9 -242 -7 -38 -19 -126 -28 -195 -17 -130 -29
-166 -95 -280 -38 -67 -79 -177 -79 -214 0 -14 -12 -29 -32 -40 -42 -24 -77
-65 -77 -91 -1 -65 85 -214 159 -275 23 -19 60 -50 82 -69 l40 -35 -46 -18
c-25 -10 -63 -28 -83 -41 -21 -14 -69 -41 -107 -62 -75 -41 -97 -73 -116 -176
-6 -29 -30 -90 -55 -136 -91 -168 -245 -588 -245 -668 0 -28 -62 -198 -115
-315 -47 -102 -58 -151 -50 -224 7 -61 6 -62 -30 -101 -61 -66 -79 -115 -72
-206 5 -62 3 -80 -9 -90 -36 -30 -43 -64 -41 -191 3 -107 6 -130 25 -162 12
-21 22 -54 22 -76 0 -27 16 -71 54 -147 60 -117 78 -163 105 -263 26 -95 64
-161 110 -193 56 -39 86 -82 101 -144 7 -33 27 -72 55 -108 24 -30 45 -59 47
-64 2 -4 30 -28 63 -53 33 -25 70 -57 82 -70 21 -22 22 -25 7 -67 -9 -27 -13
-65 -10 -104 3 -50 0 -68 -17 -96 -18 -30 -19 -39 -9 -76 10 -37 8 -50 -10
-96 -11 -30 -22 -74 -23 -99 -1 -25 -16 -74 -33 -110 -17 -36 -36 -94 -42
-130 -7 -36 -23 -86 -36 -111 -13 -26 -24 -54 -24 -63 0 -15 113 -16 1281 -16
863 0 1287 3 1300 10 13 7 19 7 19 0 0 -5 5 -10 10 -10 6 0 10 6 10 14 0 8 10
16 23 18 18 2 23 10 25 46 2 23 7 42 11 42 12 0 63 49 83 79 20 30 23 84 7
130 -10 28 -9 35 8 54 23 25 43 78 43 113 0 43 207 214 259 214 37 0 154 83
208 147 29 35 53 53 84 62 49 15 114 57 143 93 10 12 44 52 75 88 49 55 221
312 261 389 7 13 33 52 57 85 51 69 103 167 103 193 0 10 11 41 25 68 19 40
24 66 25 126 0 70 -2 79 -30 115 -26 32 -28 39 -15 46 23 13 19 41 -4 33 -17
-5 -20 -1 -19 35 0 46 -8 62 -22 40 -5 -8 -12 -11 -17 -7 -4 5 -3 11 3 15 6 4
14 16 18 27 6 16 9 17 16 5 18 -29 22 15 6 61 -9 24 -16 52 -16 62 0 31 -31
90 -59 114 -20 18 -23 25 -13 35 16 16 15 50 -2 90 -20 48 -35 100 -39 134 -5
39 -47 134 -59 134 -6 0 -8 6 -5 14 3 8 -1 20 -9 26 -8 7 -14 18 -14 24 0 7
-9 29 -20 51 -15 28 -20 34 -21 20 -1 -11 -5 32 -9 95 -8 129 -22 186 -59 245
-27 44 -111 209 -111 219 0 7 -51 94 -88 148 -13 21 -28 35 -33 32 -4 -2 -17
4 -29 16 -11 11 -15 20 -9 20 6 0 1 8 -11 18 -18 15 -21 24 -15 55 4 20 13 37
20 37 13 0 26 55 16 65 -3 3 -11 -5 -18 -17 -10 -20 -12 -20 -13 -5 0 11 -9
31 -19 45 -19 28 -21 32 -21 57 0 8 -16 22 -35 31 -19 9 -35 24 -35 33 1 14 3
14 15 -3 7 -10 18 -15 24 -12 5 4 13 1 18 -6 15 -24 79 -38 179 -38 120 0 142
-5 146 -34 3 -18 12 -22 58 -27 30 -4 84 -16 120 -28 36 -11 101 -25 145 -31
44 -6 92 -13 108 -16 34 -7 54 -39 36 -60 -10 -12 -38 -15 -151 -13 -76 1
-141 -1 -145 -5 -3 -3 9 -6 28 -6 441 -7 584 -11 634 -17 52 -7 60 -11 63 -30
2 -13 0 -23 -5 -23 -4 -1 -161 -2 -348 -4 -209 -2 -350 -7 -366 -14 -19 -8
-28 -20 -33 -45 -9 -47 -21 -54 -88 -56 -57 -1 -128 -31 -128 -53 0 -6 12 -32
27 -58 22 -38 35 -51 68 -61 22 -7 47 -18 55 -24 8 -7 26 -15 40 -18 14 -3 54
-13 89 -23 59 -16 82 -16 265 -5 173 11 225 10 369 -3 92 -9 183 -16 202 -16
l35 0 0 306 c0 258 -2 308 -15 320 -8 9 -17 25 -19 37 -5 28 -32 218 -46 322
-9 67 -14 83 -35 98 -14 10 -25 26 -25 35 0 10 32 48 70 86 l70 68 -1 737 c-1
583 -4 726 -13 687 -11 -46 -13 -48 -29 -32 -9 10 -17 22 -17 27 0 5 -4 9 -10
9 -5 0 -10 -15 -10 -33 0 -57 -19 -65 -165 -70 -72 -3 -150 -8 -175 -12 -25
-4 -79 -7 -120 -6 -95 2 -111 -7 -81 -44 23 -30 26 -56 12 -84 -9 -16 -26 -18
-146 -18 -121 0 -137 2 -149 18 -14 21 -15 234 -1 357 l8 72 -45 0 -46 0 -6
-97 c-3 -54 -7 -132 -9 -173 -3 -41 -6 -77 -7 -80 -2 -3 -4 -10 -4 -15 -1 -6
-11 -22 -24 -35 -20 -22 -24 -22 -48 -9 -28 14 -39 15 -230 5 -126 -7 -281 11
-310 35 -22 18 -64 -15 -64 -50 l0 -28 89 -7 c97 -8 107 -14 127 -71 8 -25 8
-49 -1 -98 -7 -35 -15 -69 -19 -76 -4 -6 -2 -27 5 -46 12 -32 11 -37 -8 -56
-36 -37 -79 -4 -88 67 -4 25 -1 34 10 34 11 0 15 12 15 50 0 49 -1 50 -30 50
-16 0 -50 5 -75 12 -24 7 -47 9 -50 6 -7 -6 11 -43 31 -64 16 -18 28 -134 15
-147 -8 -8 -15 -6 -23 5 -7 9 -20 18 -28 21 -12 4 -11 6 3 6 20 1 22 17 5 54
-22 46 -40 43 -33 -6 7 -49 -8 -140 -24 -145 -6 -2 -11 -9 -11 -17 0 -7 -7
-18 -15 -25 -12 -10 -15 -9 -15 7 0 11 -13 37 -30 58 -28 36 -29 38 -14 67 10
19 14 50 13 86 l-3 56 50 26 49 25 0 115 c0 63 -3 130 -8 149 -6 22 -4 43 3
62 7 17 9 44 6 64 -7 34 -8 35 -41 29 -28 -5 -40 -1 -66 20 -40 34 -63 34 -57
1 3 -14 0 -29 -6 -32 -15 -10 -46 -11 -46 -2 0 4 -8 9 -17 11 -16 3 -42 80
-46 136 -2 16 -8 22 -25 22 -30 0 -40 -30 -31 -89 9 -59 1 -98 -23 -115 -16
-11 -16 -14 -4 -19 21 -8 55 -87 47 -106 -4 -9 -15 -31 -24 -49 -18 -35 -21
-69 -11 -96 7 -19 22 -21 20 -3 0 6 4 14 9 17 6 3 11 -15 13 -42 3 -39 7 -48
22 -48 23 0 36 18 18 25 -17 7 -22 83 -7 101 15 18 53 18 68 0 14 -16 4 -46
-21 -64 -22 -16 -24 -32 -4 -32 10 0 14 -10 12 -34 -3 -30 0 -35 23 -39 29 -6
48 -40 43 -74 -4 -29 -36 -30 -56 -2 -14 21 -15 21 -32 -12 -10 -19 -18 -58
-18 -89 l-1 -55 -33 0 c-36 -1 -52 -17 -52 -53 0 -34 -38 -25 -59 13 -17 32
-33 52 -65 85 -24 24 -16 45 21 55 26 6 43 21 43 38 0 4 -20 7 -45 7 -42 0
-47 3 -60 33 -9 21 -10 36 -3 44 12 15 -7 53 -28 53 -13 0 -14 -10 -11 -57 3
-32 8 -70 12 -85 4 -16 3 -28 -2 -28 -5 0 -15 -16 -22 -36 -38 -106 -125 66
-97 193 5 25 6 59 0 84 -8 37 -14 44 -42 51 -18 5 -38 17 -45 28 -15 24 -27
26 -27 3 0 -9 -7 -25 -16 -35 -14 -14 -14 -20 -4 -33 7 -8 14 -51 16 -98 4
-71 1 -85 -15 -105 -23 -26 -39 -22 -80 22 -30 32 -35 32 -50 0 -8 -19 -9 -35
0 -64 10 -33 9 -41 -7 -64 -11 -14 -25 -26 -31 -26 -7 0 -13 -2 -13 -4 0 -8
28 -83 48 -126 11 -25 23 -53 26 -64 5 -15 13 -17 44 -12 20 3 65 9 100 13 34
3 66 11 70 17 11 17 35 86 41 115 1 2 15 -21 31 -52 32 -59 39 -124 18 -145
-19 -19 2 -32 63 -38 78 -8 99 -21 99 -60 0 -18 -5 -36 -10 -39 -16 -10 -3
-22 31 -29 18 -3 57 -27 88 -53 31 -26 58 -48 61 -50 2 -2 4 -16 5 -31 0 -24
5 -27 45 -34 25 -4 115 -11 200 -15 l155 -8 0 -25 c0 -41 -55 -49 -339 -48
-204 0 -251 -2 -263 -14 -12 -13 -11 -19 11 -45 25 -30 55 -46 106 -57 14 -3
39 -22 55 -42 83 -99 101 -114 142 -114 27 0 46 -6 57 -19 10 -11 36 -22 59
-25 171 -22 221 -32 225 -45 9 -26 -25 -40 -70 -30 -50 12 -70 6 -83 -23 -6
-14 -22 -25 -39 -28 -29 -5 -28 -6 22 -29 28 -13 66 -39 84 -57 18 -18 39 -34
46 -34 6 0 12 -4 12 -10 0 -5 11 -12 25 -16 14 -3 25 -10 25 -15 0 -5 11 -15
25 -21 18 -8 25 -18 24 -37 -1 -20 -3 -21 -6 -6 -2 12 -36 39 -88 69 -46 28
-100 64 -120 82 -34 29 -67 41 -203 72 -23 6 -51 8 -61 5 -13 -3 -30 7 -52 31
-34 38 -56 45 -65 21 -5 -13 -11 -12 -40 5 -18 12 -51 22 -73 23 -22 0 -37 5
-34 10 2 4 0 13 -5 20 -5 7 -13 29 -16 50 -5 28 -11 37 -22 33 -8 -3 -14 -1
-14 5 0 17 -61 137 -76 150 -8 6 -14 19 -14 29 0 9 -11 34 -25 54 -14 20 -25
40 -25 45 0 14 -36 41 -54 41 -20 0 -39 42 -23 52 7 4 6 12 -3 23 -9 10 -16
12 -20 5 -4 -6 -12 0 -20 15 -7 14 -19 25 -27 25 -7 0 -13 7 -13 15 0 8 -4 15
-9 15 -5 0 -13 9 -16 20 -3 11 -13 20 -21 20 -8 0 -17 7 -20 15 -4 8 -10 12
-15 9 -5 -3 -9 1 -9 8 0 7 -9 19 -20 26 -11 7 -20 19 -20 27 0 8 -8 18 -17 24
-14 8 -15 11 -4 25 8 9 10 20 6 24 -4 4 -10 1 -12 -5 -9 -26 -23 -12 -23 22
l0 35 20 -20 c11 -11 27 -20 35 -20 13 0 13 3 3 20 -9 14 -15 16 -21 7 -6 -8
-7 -4 -4 11 7 32 -20 119 -41 132 -16 9 -16 11 3 22 19 12 19 12 -5 18 -17 4
-25 13 -25 30 -3 61 -8 94 -12 78 -6 -26 -28 -22 -41 6 -8 17 -21 26 -44 29
-30 4 -31 5 -10 12 29 10 28 16 -13 59 -19 21 -35 42 -35 47 0 5 -11 9 -24 9
-22 0 -24 3 -19 33 3 23 0 39 -10 49 -9 9 -14 18 -12 20 3 2 -11 21 -31 42
-20 21 -40 51 -46 67 -5 16 -14 29 -19 29 -11 0 -61 34 -97 68 l-25 22 27 0
c19 0 26 -5 26 -20 0 -14 5 -18 16 -13 9 3 11 9 6 12 -5 3 -20 26 -32 51 -12
25 -25 52 -29 60 -24 45 -143 76 -216 57 -66 -17 -111 -3 -146 46 -17 23 -36
42 -42 42 -14 0 -21 -57 -12 -92 5 -21 8 -23 21 -12 19 16 28 6 20 -24 -6 -24
-102 -107 -125 -107 -6 0 -11 12 -11 28 1 26 -9 104 -15 110 -1 1 -10 0 -19
-4 -17 -7 -22 -39 -6 -49 11 -7 2 -36 -17 -52 -8 -6 -17 -26 -20 -44 -10 -66
-21 -82 -52 -76 -25 5 -28 3 -24 -17 3 -16 -6 -33 -33 -60 -20 -20 -42 -35
-48 -33 -17 5 -24 105 -12 165 8 40 7 60 -3 85 -16 38 -16 49 -3 99 16 60 -2
82 -69 86 -30 2 -58 0 -62 -4z m2242 -206 c12 -19 11 -23 -5 -34 -36 -25 -44
-35 -44 -55 0 -18 4 -20 33 -14 24 5 28 4 17 -4 -10 -7 -11 -11 -2 -11 18 0
15 -56 -4 -75 -27 -26 -49 -15 -52 28 -3 37 -4 37 -48 37 l-44 0 0 43 c0 61
11 72 65 70 38 -1 45 1 45 18 0 26 22 24 39 -3z m-2175 -120 c3 -13 7 -41 10
-63 3 -22 8 -56 12 -76 7 -44 -8 -76 -38 -81 -18 -2 -23 -10 -24 -33 -1 -35
-39 -102 -48 -86 -4 6 -7 42 -7 80 0 57 4 76 22 100 17 23 22 43 21 83 -1 51
17 98 38 98 5 0 12 -10 14 -22z m-5 -1137 c51 -40 164 -79 146 -51 -6 10 13
14 50 10 62 -6 483 -164 509 -191 6 -5 2 -9 -11 -9 -12 0 -23 5 -25 10 -2 7
-27 3 -67 -10 -35 -11 -75 -20 -90 -20 -14 0 -64 -14 -111 -30 -59 -21 -94
-28 -117 -24 -34 6 -42 -3 -21 -24 9 -9 7 -12 -10 -12 -13 0 -20 5 -17 13 3 7
-25 25 -73 47 -42 19 -88 43 -102 53 -38 29 -79 101 -96 170 -8 34 -18 70 -20
80 -8 25 13 21 55 -12z m881 -321 c3 -3 17 -11 32 -19 15 -8 37 -22 47 -33 11
-10 27 -18 36 -18 10 0 13 -5 9 -12 -5 -7 -9 -20 -9 -30 -1 -15 -66 -108 -107
-152 -10 -11 -18 -26 -18 -33 0 -7 -10 -17 -22 -22 -13 -5 -46 -31 -73 -59
-93 -92 -208 -96 -281 -10 -16 19 -44 40 -63 46 -29 10 -38 9 -66 -8 -65 -40
-113 10 -116 125 -1 37 -8 64 -20 79 -17 22 -17 26 -3 55 18 36 30 33 92 -24
21 -18 56 -42 79 -54 23 -11 46 -29 52 -38 8 -15 29 -18 139 -20 114 -3 130
-2 136 13 3 9 2 22 -4 29 -11 14 6 55 22 55 4 0 17 19 29 42 12 24 33 60 47
80 25 38 31 39 62 8z m-377 -1056 c30 -6 37 -11 37 -30 0 -23 -2 -23 -59 -18
-34 4 -61 3 -64 -3 -4 -6 -18 -118 -32 -249 -29 -274 -43 -402 -50 -459 -3
-22 -10 -101 -15 -175 -5 -74 -16 -225 -25 -335 -19 -261 -19 -321 0 -329 8
-3 79 -12 157 -21 79 -8 202 -22 273 -30 139 -16 532 -52 628 -58 37 -2 60 1
62 7 8 24 32 271 36 361 l1 30 8 -33 c4 -18 8 -115 9 -216 2 -149 -1 -185 -13
-195 -14 -12 -53 -10 -529 34 -372 34 -657 72 -676 91 -10 10 -5 349 8 534 7
96 22 258 32 360 11 102 27 248 34 325 14 134 40 329 51 388 5 24 10 27 47 27
23 0 59 -3 80 -6z m267 -33 c47 -5 148 -15 225 -21 345 -26 320 -23 323 -47 5
-32 1 -32 -463 11 -268 25 -274 27 -261 63 5 12 15 14 49 9 23 -3 80 -10 127
-15z m-281 -129 c36 -153 51 -245 50 -307 0 -74 -9 -56 -38 81 -12 54 -32 146
-45 203 -14 58 -23 108 -20 112 14 23 35 -12 53 -89z m1049 62 c52 -5 75 -11
79 -22 10 -23 -10 -254 -62 -727 -8 -77 -20 -200 -27 -274 -9 -103 -14 -128
-21 -110 -13 34 -13 370 1 459 6 41 14 116 17 165 4 50 15 170 26 269 11 98
17 181 14 184 -2 3 -44 9 -92 13 -49 4 -91 8 -94 8 -11 1 -20 32 -13 43 4 6
26 8 53 5 25 -4 79 -9 119 -13z m-3 -76 c3 -3 -24 -65 -60 -139 -35 -74 -65
-132 -65 -129 -1 3 -7 41 -15 85 -13 78 -13 81 13 139 l26 58 48 -4 c27 -3 51
-7 53 -10z m-165 -330 c0 -15 -37 -102 -81 -195 -45 -92 -101 -208 -124 -258
-271 -573 -324 -677 -342 -673 -14 2 -28 49 -70 228 -54 229 -91 372 -121 470
l-17 55 -125 13 c-69 7 -130 14 -136 16 -12 4 -7 56 5 56 19 0 191 -21 215
-26 l29 -6 -7 63 c-4 35 -10 82 -13 103 -12 77 14 27 32 -61 10 -49 23 -93 29
-99 6 -6 88 -19 181 -28 264 -27 258 -25 232 -59 -12 -17 -23 -17 -201 3 -104
12 -190 19 -193 17 -2 -3 24 -119 58 -258 34 -140 66 -272 72 -294 l9 -40 61
125 c33 69 104 215 158 325 54 110 106 220 117 245 10 25 61 132 113 239 l94
194 12 -64 c7 -35 12 -76 13 -91z m-1566 -225 c23 -80 28 -161 23 -395 l-4
-253 -40 -90 c-22 -49 -48 -120 -58 -157 -14 -52 -22 -68 -36 -68 -24 0 -26 5
-44 91 -9 40 -27 92 -40 115 -19 32 -23 50 -19 74 5 23 1 39 -15 60 -22 31
-28 65 -11 75 6 3 10 21 10 39 0 19 7 39 16 47 16 13 15 44 -1 82 -5 13 -2 17
11 17 34 0 83 38 99 76 30 71 30 109 1 163 -41 80 -34 103 37 116 20 4 40 11
43 16 9 15 22 10 28 -8z m2531 -135 c4 -18 16 -59 26 -90 10 -32 19 -67 19
-78 0 -37 70 -170 113 -215 29 -30 54 -45 80 -50 41 -8 44 -16 23 -66 -16 -41
-13 -50 36 -113 37 -47 39 -51 22 -63 -10 -7 -23 -13 -29 -13 -27 0 -48 -39
-41 -78 5 -36 4 -39 -28 -54 -27 -13 -35 -25 -45 -62 -9 -36 -20 -51 -56 -76
-35 -24 -46 -38 -51 -68 -4 -20 -22 -55 -41 -78 -18 -23 -33 -46 -33 -52 0 -6
-15 -30 -33 -54 -18 -24 -42 -58 -52 -75 -21 -36 -32 -40 -58 -20 -17 11 -17
17 -2 87 37 173 66 497 71 800 5 280 7 299 31 373 13 42 28 77 33 77 5 0 11
-15 15 -32z"/>
<path d="M1829 6183 c-5 -15 -19 -33 -29 -40 -11 -8 -20 -20 -20 -28 0 -8 -7
-11 -20 -8 -15 4 -20 0 -20 -13 0 -41 26 -56 164 -95 56 -16 104 -29 109 -29
4 0 12 12 18 26 16 43 -11 63 -79 63 -43 -1 -59 3 -69 17 -22 30 -9 39 54 38
44 -1 60 2 60 12 0 16 -32 28 -47 19 -5 -3 -10 0 -10 8 0 22 -44 57 -73 57
-21 0 -30 -7 -38 -27z"/>
<path d="M3695 5947 c-8 -19 -21 -39 -29 -47 -9 -7 -16 -20 -16 -30 0 -18 -19
-30 -48 -30 -10 0 -23 -10 -30 -21 -12 -19 -20 -21 -63 -16 -29 4 -49 2 -49
-4 0 -22 44 -100 61 -110 11 -5 19 -18 19 -29 0 -12 5 -17 13 -14 10 3 14 -4
14 -26 0 -48 16 -56 57 -31 35 22 35 22 31 86 -2 36 1 65 6 65 5 0 9 -4 9 -10
0 -20 15 -9 40 28 47 71 50 84 33 156 -9 36 -20 66 -25 66 -5 0 -15 -15 -23
-33z"/>
<path d="M331 5466 c-1 -79 2 -96 14 -96 9 0 15 -9 15 -25 0 -14 -3 -25 -8
-25 -10 0 -32 -96 -32 -139 0 -35 27 -74 34 -49 20 62 30 366 14 397 -27 51
-36 35 -37 -63z"/>
<path d="M130 5369 c0 -5 4 -9 9 -9 9 0 15 -31 27 -120 3 -27 2 -31 -5 -15 -7
14 -10 -3 -10 -62 -1 -70 -4 -83 -17 -83 -14 0 -16 -8 -11 -57 3 -32 12 -62
19 -68 8 -5 20 -25 27 -43 12 -29 11 -38 -4 -72 -27 -59 -9 -166 24 -146 6 4
11 20 11 37 0 29 13 38 26 18 14 -23 31 49 34 141 1 52 3 113 4 135 1 41 -7
46 -54 34 -13 -3 -15 18 -15 148 0 83 -2 154 -5 157 -10 10 -60 15 -60 5z"/>
<path d="M1100 4045 c-30 -22 -110 -128 -110 -145 0 -3 31 -4 70 -2 55 3 73 1
86 -12 9 -10 23 -15 31 -12 8 3 22 6 31 6 12 1 8 6 -10 15 -27 15 -28 18 -41
149 -3 29 -19 29 -57 1z"/>
<path d="M6085 3339 c-185 -18 -344 -57 -389 -96 -14 -13 -56 -30 -93 -39 -98
-24 -189 -69 -197 -97 -11 -41 -6 -63 26 -123 18 -32 42 -85 54 -118 31 -87
23 -86 487 -86 l387 0 0 285 0 285 -92 -1 c-51 -1 -133 -6 -183 -10z"/>
</g>
</svg>
