<svg width="861.9250976562499px" height="121.38388671874999px" xmlns="http://www.w3.org/2000/svg" viewBox="-180.96254882812497 14.308056640625004 861.9250976562499 121.38388671874999" style="background-color: rgba(0, 0, 0, 0);" preserveAspectRatio="xMidYMid"><defs><filter id="editing-metal-beveled"><feGaussianBlur stdDeviation="4" in="SourceAlpha" result="blur"></feGaussianBlur><feSpecularLighting surfaceScale="5" specularConstant="0.8" specularExponent="7.5" lighting-color="#fff" in="blur" result="specular"><fePointLight x="-250" y="-50" z="300"></fePointLight></feSpecularLighting><feComposite operator="in" in="specular" in2="SourceAlpha" result="comp"></feComposite><feComposite in="SourceGraphic" in2="comp" operator="arithmetic" k1="0" k2="1" k3="1" k4="0"></feComposite></filter></defs><g filter="url(#editing-metal-beveled)"><g transform="translate(-58.38499999046326, 104.79781341552734)"><path d="M14.14 0L0.51 0L7.81-38.91L8.51-42.24L22.21-42.24L14.14 0ZM40.13-3.78L40.13-3.78L40.13-3.78Q38.40 1.28 31.74 1.28L31.74 1.28L31.74 1.28Q26.82 1.28 23.42-4.61L23.42-4.61L23.42-4.61Q19.97-10.50 19.33-20.10L19.33-20.10L19.33-20.10Q26.37-32.96 31.23-38.27L31.23-38.27L31.23-38.27Q35.90-43.33 40.77-43.33L40.77-43.33L40.77-43.33Q43.39-43.33 45.28-41.92L45.28-41.92L45.28-41.92Q47.17-40.51 47.62-38.27L47.62-38.27L47.62-38.27Q45.44-37.38 44.42-36.67L44.42-36.67L44.42-36.67Q41.86-34.75 38.40-30.46L38.40-30.46L32.58-23.49L32.58-23.49Q31.17-21.82 30.59-21.06L30.59-21.06L30.59-21.06Q31.55-15.68 34.43-10.37L34.43-10.37L34.43-10.37Q37.18-5.31 40.13-3.78ZM57.73 1.28L57.73 1.28L57.73 1.28Q43.65 1.28 43.65-11.97L43.65-11.97L43.65-11.97Q43.65-21.38 48.83-27.46L48.83-27.46L48.83-27.46Q54.34-33.92 63.87-33.92L63.87-33.92L63.87-33.92Q70.78-33.92 74.30-30.72L74.30-30.72L74.30-30.72Q77.82-27.52 77.82-20.80L77.82-20.80L77.82-20.80Q77.82-10.56 72.32-4.61L72.32-4.61L72.32-4.61Q66.94 1.28 57.73 1.28ZM59.39-26.56L59.39-26.56L59.39-26.56Q58.62-24.83 58.02-22.24L58.02-22.24L58.02-22.24Q57.41-19.65 56.64-15.55L56.64-15.55L56.64-15.55Q55.87-11.46 55.87-6.40L55.87-6.40L55.87-6.40Q55.87-4.74 56.42-3.65L56.42-3.65L56.42-3.65Q56.96-2.56 58.43-2.56L58.43-2.56L58.43-2.56Q59.90-2.56 60.83-3.26L60.83-3.26L60.83-3.26Q61.76-3.97 62.46-5.63L62.46-5.63L62.46-5.63Q63.74-8.58 64.77-14.05L64.77-14.05L64.77-14.05Q65.79-19.52 65.89-21.89L65.89-21.89L65.89-21.89Q65.98-24.26 65.98-26.02L65.98-26.02L65.98-26.02Q65.98-27.78 65.47-28.93L65.47-28.93L65.47-28.93Q64.96-30.08 63.52-30.08L63.52-30.08L63.52-30.08Q62.08-30.08 61.12-29.18L61.12-29.18L61.12-29.18Q60.16-28.29 59.39-26.56ZM101.76-33.92L101.76-33.92L101.76-33.92Q104.06-33.92 105.86-33.41L105.86-33.41L105.86-33.41Q105.92-33.66 106.05-34.37L106.05-34.37L106.37-36.35L106.37-36.35Q106.62-37.63 107.01-39.74L107.01-39.74L108.03-44.80L120.77-46.08L113.66-8.96L113.66-8.96Q113.60-8.58 113.60-7.94L113.60-7.94L113.60-6.91L113.60-6.91Q113.60-5.50 114.30-4.45L114.30-4.45L114.30-4.45Q115.01-3.39 116.16-3.39L116.16-3.39L116.16-3.39Q114.88-0.38 110.98 0.90L110.98 0.90L110.98 0.90Q109.63 1.28 107.74 1.28L107.74 1.28L107.74 1.28Q105.86 1.28 104.13 0.29L104.13 0.29L104.13 0.29Q102.40-0.70 101.89-2.37L101.89-2.37L101.89-2.37Q100.86-0.70 98.82 0.29L98.82 0.29L98.82 0.29Q96.77 1.28 93.79 1.28L93.79 1.28L93.79 1.28Q90.82 1.28 88.35 0.51L88.35 0.51L88.35 0.51Q85.89-0.26 84.35-1.92L84.35-1.92L84.35-1.92Q81.54-5.18 81.54-12.61L81.54-12.61L81.54-12.61Q81.54-22.21 87.17-28.03L87.17-28.03L87.17-28.03Q92.80-33.92 101.76-33.92ZM101.31-30.08L101.31-30.08L101.31-30.08Q98.94-30.08 97.66-27.52L97.66-27.52L97.66-27.52Q96.38-24.96 95.07-18.62L95.07-18.62L95.07-18.62Q93.76-12.29 93.76-6.59L93.76-6.59L93.76-6.59Q93.76-2.69 96.06-2.69L96.06-2.69L96.06-2.69Q98.11-2.69 99.55-4.74L99.55-4.74L99.55-4.74Q100.99-6.78 101.57-10.18L101.57-10.18L105.02-28.93L105.02-28.93Q103.68-30.08 101.31-30.08ZM141.63-17.98L141.63-17.98L141.63-17.98Q143.94-22.08 143.94-26.24L143.94-26.24L143.94-26.24Q143.94-28.99 141.95-28.99L141.95-28.99L141.95-28.99Q140.42-28.99 138.82-26.37L138.82-26.37L138.82-26.37Q137.15-23.74 136.64-20.35L136.64-20.35L133.31 0L120.06 1.28L126.59-32.64L137.15-33.92L136-27.46L136-27.46Q139.14-33.92 146.18-33.92L146.18-33.92L146.18-33.92Q149.89-33.92 151.90-32L151.90-32L151.90-32Q153.92-30.08 153.92-26.14L153.92-26.14L153.92-26.14Q153.92-22.21 151.33-19.71L151.33-19.71L151.33-19.71Q148.74-17.22 144.32-17.22L144.32-17.22L144.32-17.22Q142.40-17.22 141.63-17.98ZM180.86-10.82L180.86-10.82L180.86-10.82Q182.46-9.73 182.46-7.33L182.46-7.33L182.46-7.33Q182.46-4.93 181.25-3.39L181.25-3.39L181.25-3.39Q180.03-1.86 178.05-0.83L178.05-0.83L178.05-0.83Q173.95 1.28 169.54 1.28L169.54 1.28L169.54 1.28Q165.12 1.28 162.53 0.32L162.53 0.32L162.53 0.32Q159.94-0.64 158.21-2.43L158.21-2.43L158.21-2.43Q154.82-5.82 154.82-12.03L154.82-12.03L154.82-12.03Q154.82-21.70 160.06-27.58L160.06-27.58L160.06-27.58Q165.70-33.92 175.49-33.92L175.49-33.92L175.49-33.92Q181.57-33.92 184.58-31.36L184.58-31.36L184.58-31.36Q186.82-29.44 186.82-26.30L186.82-26.30L186.82-26.30Q186.82-15.04 167.36-15.04L167.36-15.04L167.36-15.04Q167.10-13.38 167.10-11.97L167.10-11.97L167.10-11.97Q167.10-9.02 168.42-7.90L168.42-7.90L168.42-7.90Q169.73-6.78 172.16-6.78L172.16-6.78L172.16-6.78Q174.59-6.78 177.18-7.90L177.18-7.90L177.18-7.90Q179.78-9.02 180.86-10.82ZM167.81-17.79L167.81-17.79L167.81-17.79Q172.35-17.79 174.98-20.61L174.98-20.61L174.98-20.61Q177.60-23.30 177.60-27.58L177.60-27.58L177.60-27.58Q177.60-29.06 177.06-29.86L177.06-29.86L177.06-29.86Q176.51-30.66 175.42-30.66L175.42-30.66L175.42-30.66Q174.34-30.66 173.41-30.24L173.41-30.24L173.41-30.24Q172.48-29.82 171.52-28.42L171.52-28.42L171.52-28.42Q169.15-25.22 167.81-17.79ZM191.78-1.92L191.78-1.92L191.78-1.92Q190.27-3.58 189.60-6.21L189.60-6.21L189.60-6.21Q188.93-8.83 188.93-13.12L188.93-13.12L188.93-13.12Q188.93-17.41 190.40-21.31L190.40-21.31L190.40-21.31Q191.87-25.22 194.56-28.03L194.56-28.03L194.56-28.03Q200.06-33.92 209.15-33.92L209.15-33.92L209.15-33.92Q212.42-33.92 214.78-32.83L214.78-32.83L225.73-33.92L220.99-8.96L220.99-8.96Q220.80-8.19 220.80-6.78L220.80-6.78L220.80-6.78Q220.80-5.38 221.66-4.48L221.66-4.48L221.66-4.48Q222.53-3.58 223.81-3.46L223.81-3.46L223.81-3.46Q223.17-1.28 220.83 0L220.83 0L220.83 0Q218.50 1.28 215.87 1.28L215.87 1.28L215.87 1.28Q213.25 1.28 211.49 0.29L211.49 0.29L211.49 0.29Q209.73-0.70 209.22-2.37L209.22-2.37L209.22-2.37Q208.19-0.77 206.02 0.26L206.02 0.26L206.02 0.26Q203.84 1.28 200.93 1.28L200.93 1.28L200.93 1.28Q198.02 1.28 195.65 0.51L195.65 0.51L195.65 0.51Q193.28-0.26 191.78-1.92ZM205.28-27.90L205.28-27.90L205.28-27.90Q204.54-26.75 203.90-24.80L203.90-24.80L203.90-24.80Q203.26-22.85 202.21-17.63L202.21-17.63L202.21-17.63Q201.15-12.42 201.15-8.70L201.15-8.70L201.15-8.70Q201.15-4.99 201.73-3.90L201.73-3.90L201.73-3.90Q202.30-2.82 203.33-2.82L203.33-2.82L203.33-2.82Q205.38-2.82 206.88-4.77L206.88-4.77L206.88-4.77Q208.38-6.72 208.96-10.18L208.96-10.18L212.35-28.93L212.35-28.93Q211.01-30.08 209.44-30.08L209.44-30.08L209.44-30.08Q207.87-30.08 206.94-29.57L206.94-29.57L206.94-29.57Q206.02-29.06 205.28-27.90ZM256.26 1.28L256.26 1.28L256.26 1.28Q248.51 1.28 248.51-4.74L248.51-4.74L248.51-4.74Q248.58-6.40 249.09-9.22L249.09-9.22L250.24-15.10L250.24-15.10Q251.97-23.42 251.97-25.28L251.97-25.28L251.97-25.28Q251.97-28.99 249.79-28.99L249.79-28.99L249.79-28.99Q246.14-28.99 244.22-19.46L244.22-19.46L240.45 0L227.58 1.28L234.24-32.70L244.74-33.92L243.71-27.65L243.71-27.65Q246.72-33.92 255.94-33.92L255.94-33.92L255.94-33.92Q260.42-33.92 262.30-32.03L262.30-32.03L262.30-32.03Q264.19-30.14 264.19-25.92L264.19-25.92L264.19-25.92Q264.19-21.95 262.14-12.67L262.14-12.67L262.14-12.67Q261.18-8.51 261.18-6.94L261.18-6.94L261.18-6.94Q261.18-5.38 262.05-4.48L262.05-4.48L262.05-4.48Q262.91-3.58 264.19-3.46L264.19-3.46L264.19-3.46Q263.55-1.28 261.34 0L261.34 0L261.34 0Q259.14 1.28 256.26 1.28ZM289.86-2.69L289.86-2.69L289.86-2.69Q286.78 1.28 279.17 1.28L279.17 1.28L279.17 1.28Q275.20 1.28 272.32-1.12L272.32-1.12L272.32-1.12Q269.44-3.52 269.44-6.98L269.44-6.98L269.44-6.98Q269.44-8.90 269.63-9.86L269.63-9.86L273.92-32.64L286.91-33.92L282.24-9.22L282.24-9.22Q281.98-7.81 281.98-6.98L281.98-6.98L281.98-6.98Q281.98-3.26 284.22-3.26L284.22-3.26L284.22-3.26Q286.72-3.26 288.51-6.66L288.51-6.66L288.51-6.66Q289.09-7.74 289.34-9.15L289.34-9.15L293.89-32.64L306.50-33.92L301.76-8.96L301.76-8.96Q301.57-8 301.57-6.98L301.57-6.98L301.57-6.98Q301.57-5.95 302.14-4.83L302.14-4.83L302.14-4.83Q302.72-3.71 304.58-3.46L304.58-3.46L304.58-3.46Q304.19-1.92 302.85-0.90L302.85-0.90L302.85-0.90Q300.03 1.28 296.99 1.28L296.99 1.28L296.99 1.28Q293.95 1.28 292.16 0.19L292.16 0.19L292.16 0.19Q290.37-0.90 289.86-2.69ZM351.49-26.56L351.49-26.56L351.49-26.56Q351.49 0.70 321.92 0.70L321.92 0.70L321.92 0.70Q317.18 0.70 309.38-0.45L309.38-0.45L316.54-38.27L316.54-38.27Q317.06-40.83 317.38-42.30L317.38-42.30L317.38-42.30Q327.10-43.01 331.42-43.01L331.42-43.01L331.42-43.01Q335.74-43.01 339.71-42.11L339.71-42.11L339.71-42.11Q343.68-41.22 346.30-39.23L346.30-39.23L346.30-39.23Q351.49-35.33 351.49-26.56ZM338.30-28.93L338.30-28.93L338.30-28.93Q338.30-38.46 331.46-38.46L331.46-38.46L330.82-38.46L330.82-38.46Q330.50-38.46 330.18-38.40L330.18-38.40L323.58-4.03L323.58-4.03Q323.84-3.90 324.10-3.90L324.10-3.90L324.61-3.90L324.61-3.90Q326.98-3.90 329.44-5.38L329.44-5.38L329.44-5.38Q331.90-6.85 333.82-9.86L333.82-9.86L333.82-9.86Q338.30-16.83 338.30-28.93ZM375.10-7.23L375.10-7.23L375.10-7.23Q371.78-3.78 365.70-3.78L365.70-3.78L365.70-3.78Q358.08-3.78 356.48-9.34L356.48-9.34L356.48-9.34Q355.97-11.01 355.97-12.86L355.97-12.86L355.97-12.86Q355.97-14.72 356.35-16.64L356.35-16.64L359.36-32.64L372.35-33.92L368.83-15.30L368.83-15.30Q368.70-14.46 368.51-13.57L368.51-13.57L368.51-13.57Q368.32-12.67 368.32-11.74L368.32-11.74L368.32-11.74Q368.32-10.82 368.64-10.21L368.64-10.21L368.64-10.21Q368.96-9.60 369.41-9.22L369.41-9.22L369.41-9.22Q370.18-8.70 371.55-8.70L371.55-8.70L371.55-8.70Q372.93-8.70 374.11-10.37L374.11-10.37L374.11-10.37Q375.30-12.03 375.87-14.91L375.87-14.91L379.39-32.64L392-33.92L387.20-8.77L387.20-8.77Q384.83 3.52 379.97 8.38L379.97 8.38L379.97 8.38Q377.47 10.88 374.24 11.87L374.24 11.87L374.24 11.87Q371.01 12.86 366.85 12.86L366.85 12.86L366.85 12.86Q360.13 12.86 356.29 10.75L356.29 10.75L356.29 10.75Q352.45 8.64 352.45 5.12L352.45 5.12L352.45 5.12Q352.45 2.50 354.43 0.99L354.43 0.99L354.43 0.99Q356.42-0.51 359.49-0.51L359.49-0.51L359.49-0.51Q362.18-0.51 364.22 0.64L364.22 0.64L364.22 0.64Q365.44 1.34 366.02 2.24L366.02 2.24L366.02 2.24Q364.54 3.52 364.54 5.63L364.54 5.63L364.54 5.63Q364.54 8.45 367.10 8.45L367.10 8.45L367.10 8.45Q371.33 8.45 373.76-1.28L373.76-1.28L373.76-1.28Q374.46-4.16 375.10-7.23ZM421.38 1.28L421.38 1.28L421.38 1.28Q413.63 1.28 413.63-4.74L413.63-4.74L413.63-4.74Q413.70-6.40 414.21-9.22L414.21-9.22L415.36-15.10L415.36-15.10Q417.09-23.42 417.09-25.28L417.09-25.28L417.09-25.28Q417.09-28.99 414.91-28.99L414.91-28.99L414.91-28.99Q411.26-28.99 409.34-19.46L409.34-19.46L405.57 0L392.70 1.28L399.36-32.70L409.86-33.92L408.83-27.65L408.83-27.65Q411.84-33.92 421.06-33.92L421.06-33.92L421.06-33.92Q425.54-33.92 427.42-32.03L427.42-32.03L427.42-32.03Q429.31-30.14 429.31-25.92L429.31-25.92L429.31-25.92Q429.31-21.95 427.26-12.67L427.26-12.67L427.26-12.67Q426.30-8.51 426.30-6.94L426.30-6.94L426.30-6.94Q426.30-5.38 427.17-4.48L427.17-4.48L427.17-4.48Q428.03-3.58 429.31-3.46L429.31-3.46L429.31-3.46Q428.67-1.28 426.46 0L426.46 0L426.46 0Q424.26 1.28 421.38 1.28ZM437.22-1.92L437.22-1.92L437.22-1.92Q435.71-3.58 435.04-6.21L435.04-6.21L435.04-6.21Q434.37-8.83 434.37-13.12L434.37-13.12L434.37-13.12Q434.37-17.41 435.84-21.31L435.84-21.31L435.84-21.31Q437.31-25.22 440-28.03L440-28.03L440-28.03Q445.50-33.92 454.59-33.92L454.59-33.92L454.59-33.92Q457.86-33.92 460.22-32.83L460.22-32.83L471.17-33.92L466.43-8.96L466.43-8.96Q466.24-8.19 466.24-6.78L466.24-6.78L466.24-6.78Q466.24-5.38 467.10-4.48L467.10-4.48L467.10-4.48Q467.97-3.58 469.25-3.46L469.25-3.46L469.25-3.46Q468.61-1.28 466.27 0L466.27 0L466.27 0Q463.94 1.28 461.31 1.28L461.31 1.28L461.31 1.28Q458.69 1.28 456.93 0.29L456.93 0.29L456.93 0.29Q455.17-0.70 454.66-2.37L454.66-2.37L454.66-2.37Q453.63-0.77 451.46 0.26L451.46 0.26L451.46 0.26Q449.28 1.28 446.37 1.28L446.37 1.28L446.37 1.28Q443.46 1.28 441.09 0.51L441.09 0.51L441.09 0.51Q438.72-0.26 437.22-1.92ZM450.72-27.90L450.72-27.90L450.72-27.90Q449.98-26.75 449.34-24.80L449.34-24.80L449.34-24.80Q448.70-22.85 447.65-17.63L447.65-17.63L447.65-17.63Q446.59-12.42 446.59-8.70L446.59-8.70L446.59-8.70Q446.59-4.99 447.17-3.90L447.17-3.90L447.17-3.90Q447.74-2.82 448.77-2.82L448.77-2.82L448.77-2.82Q450.82-2.82 452.32-4.77L452.32-4.77L452.32-4.77Q453.82-6.72 454.40-10.18L454.40-10.18L457.79-28.93L457.79-28.93Q456.45-30.08 454.88-30.08L454.88-30.08L454.88-30.08Q453.31-30.08 452.38-29.57L452.38-29.57L452.38-29.57Q451.46-29.06 450.72-27.90ZM520.70 1.28L520.70 1.28L520.70 1.28Q512.96 1.28 512.96-4.74L512.96-4.74L512.96-4.74Q512.96-7.36 514.08-12.45L514.08-12.45L514.08-12.45Q515.20-17.54 515.58-19.58L515.58-19.58L515.58-19.58Q516.48-24.26 516.48-25.73L516.48-25.73L516.48-25.73Q516.48-28.99 514.05-28.99L514.05-28.99L514.05-28.99Q512.45-28.99 510.91-26.78L510.91-26.78L510.91-26.78Q509.38-24.58 508.67-20.16L508.67-20.16L504.70 0L492.22 1.28L495.68-16.13L495.68-16.13Q496.26-19.01 496.77-22.27L496.77-22.27L496.77-22.27Q497.28-25.54 497.28-26.05L497.28-26.05L497.28-26.05Q497.28-28.99 495.10-28.99L495.10-28.99L495.10-28.99Q493.63-28.99 492.03-26.82L492.03-26.82L492.03-26.82Q490.43-24.64 489.54-20.16L489.54-20.16L485.63 0L473.02 1.28L479.74-32.64L490.18-33.92L489.09-27.46L489.09-27.46Q490.75-30.91 493.82-32.42L493.82-32.42L493.82-32.42Q496.90-33.92 501.70-33.92L501.70-33.92L501.70-33.92Q504.45-33.92 506.24-32.58L506.24-32.58L506.24-32.58Q508.03-31.23 508.61-29.06L508.61-29.06L508.61-29.06Q509.70-31.30 512.48-32.61L512.48-32.61L512.48-32.61Q515.26-33.92 518.69-33.92L518.69-33.92L518.69-33.92Q522.11-33.92 523.81-33.18L523.81-33.18L523.81-33.18Q525.50-32.45 526.53-31.23L526.53-31.23L526.53-31.23Q528.26-28.99 528.26-24.90L528.26-24.90L528.26-24.90Q528.26-20.86 526.53-12.48L526.53-12.48L526.53-12.48Q525.63-8.38 525.63-6.88L525.63-6.88L525.63-6.88Q525.63-5.38 526.50-4.48L526.50-4.48L526.50-4.48Q527.36-3.58 528.64-3.46L528.64-3.46L528.64-3.46Q528-1.28 525.79 0L525.79 0L525.79 0Q523.58 1.28 520.70 1.28ZM548.93-3.52L548.93-3.52L548.93-3.52Q546.94 1.28 540.61 1.28L540.61 1.28L540.61 1.28Q537.34 1.28 535.30-0.96L535.30-0.96L535.30-0.96Q533.57-2.94 533.57-4.93L533.57-4.93L533.57-4.93Q533.57-10.11 535.94-20.22L535.94-20.22L538.30-32.64L551.30-33.92L547.39-13.70L547.39-13.70Q546.30-8.96 546.30-7.30L546.30-7.30L546.30-7.30Q546.30-3.65 548.93-3.52ZM539.46-41.54L539.46-41.54L539.46-41.54Q539.46-44.03 541.54-45.38L541.54-45.38L541.54-45.38Q543.62-46.72 546.62-46.72L546.62-46.72L546.62-46.72Q549.63-46.72 551.46-45.38L551.46-45.38L551.46-45.38Q553.28-44.03 553.28-41.54L553.28-41.54L553.28-41.54Q553.28-39.04 551.26-37.76L551.26-37.76L551.26-37.76Q549.25-36.48 546.24-36.48L546.24-36.48L546.24-36.48Q543.23-36.48 541.34-37.76L541.34-37.76L541.34-37.76Q539.46-39.04 539.46-41.54ZM585.79-26.62L585.79-26.62L585.79-26.62Q585.79-23.94 583.55-22.27L583.55-22.27L583.55-22.27Q581.31-20.61 577.66-20.61L577.66-20.61L577.66-20.61Q576.13-20.61 575.23-21.06L575.23-21.06L575.23-21.06Q575.94-22.72 576.16-24.80L576.16-24.80L576.16-24.80Q576.38-26.88 576.38-27.46L576.38-27.46L576.38-27.46Q576.38-30.14 574.53-30.14L574.53-30.14L574.53-30.14Q573.25-30.14 571.81-28.54L571.81-28.54L571.81-28.54Q570.37-26.94 569.15-24.45L569.15-24.45L569.15-24.45Q566.46-18.69 566.46-12.86L566.46-12.86L566.46-12.86Q566.46-9.66 567.68-8.22L567.68-8.22L567.68-8.22Q568.90-6.78 571.58-6.78L571.58-6.78L571.58-6.78Q575.30-6.78 578.24-9.86L578.24-9.86L578.24-9.86Q579.07-10.82 579.52-11.90L579.52-11.90L579.52-11.90Q581.95-10.62 581.95-7.10L581.95-7.10L581.95-7.10Q581.95-3.52 577.98-1.15L577.98-1.15L577.98-1.15Q573.89 1.28 567.36 1.28L567.36 1.28L567.36 1.28Q554.37 1.28 554.37-12.48L554.37-12.48L554.37-12.48Q554.37-22.53 560.06-28.29L560.06-28.29L560.06-28.29Q565.57-33.92 575.68-33.92L575.68-33.92L575.68-33.92Q585.79-33.92 585.79-26.62ZM606.66-22.46L606.66-22.46L606.66-22.46Q607.55-24.83 607.55-26.88L607.55-26.88L607.55-26.88Q607.55-30.66 604.48-30.66L604.48-30.66L604.48-30.66Q602.88-30.66 601.57-29.22L601.57-29.22L601.57-29.22Q600.26-27.78 600.26-25.98L600.26-25.98L600.26-25.98Q600.26-24.70 601.28-23.68L601.28-23.68L601.28-23.68Q602.75-22.27 606.53-19.97L606.53-19.97L606.53-19.97Q610.30-17.66 611.74-15.78L611.74-15.78L611.74-15.78Q613.18-13.89 613.18-11.30L613.18-11.30L613.18-11.30Q613.18-8.70 611.94-6.34L611.94-6.34L611.94-6.34Q610.69-3.97 608.45-2.30L608.45-2.30L608.45-2.30Q603.65 1.28 595.97 1.28L595.97 1.28L595.97 1.28Q591.81 1.28 588.61-0.90L588.61-0.90L588.61-0.90Q585.41-3.01 585.41-5.50L585.41-5.50L585.41-5.50Q585.41-8 587.23-9.47L587.23-9.47L587.23-9.47Q589.06-10.94 591.74-10.94L591.74-10.94L591.74-10.94Q594.43-10.94 596.10-9.92L596.10-9.92L596.10-9.92Q595.26-7.81 595.26-6.40L595.26-6.40L595.26-6.40Q595.26-2.18 598.85-2.18L598.85-2.18L598.85-2.18Q600.38-2.18 601.41-3.14L601.41-3.14L601.41-3.14Q602.43-4.10 602.43-5.76L602.43-5.76L602.43-5.76Q602.43-9.02 596.93-12.48L596.93-12.48L596.93-12.48Q592.45-15.42 591.42-16.58L591.42-16.58L591.42-16.58Q589.70-18.62 589.70-21.18L589.70-21.18L589.70-21.18Q589.70-23.74 590.91-26.18L590.91-26.18L590.91-26.18Q592.13-28.61 594.37-30.34L594.37-30.34L594.37-30.34Q599.04-33.92 607.17-33.92L607.17-33.92L607.17-33.92Q611.33-33.92 613.79-32.26L613.79-32.26L613.79-32.26Q616.26-30.59 616.26-27.78L616.26-27.78L616.26-27.78Q616.26-24.96 614.56-23.36L614.56-23.36L614.56-23.36Q612.86-21.76 609.79-21.76L609.79-21.76L609.79-21.76Q607.68-21.76 606.66-22.46Z" fill="#444"></path></g></g><style>text {
  font-size: 64px;
  font-family: Arial Black;
  dominant-baseline: central;
  text-anchor: middle;
}</style></svg>